<svg width="41" height="41" viewBox="0 0 41 41" fill="none" xmlns="http://www.w3.org/2000/svg">
<circle cx="20.5" cy="19.5005" r="17.5" fill="#FFDE2E"/>
<path d="M31.46 19.8129C31.46 13.5617 26.4232 8.49414 20.21 8.49414C13.9968 8.49414 8.95996 13.5617 8.95996 19.8129C8.95996 25.4623 13.0739 30.145 18.4521 30.9941V23.0847H15.5957V19.8129H18.4521V17.3192C18.4521 14.4825 20.1318 12.9155 22.7014 12.9155C23.9324 12.9155 25.2197 13.1366 25.2197 13.1366V15.9221H23.8012C22.4037 15.9221 21.9678 16.7946 21.9678 17.6898V19.8129H25.0878L24.5891 23.0847H21.9678V30.9941C27.3461 30.145 31.46 25.4625 31.46 19.8129Z" fill="black"/>
</svg>
