<svg width="41" height="41" viewBox="0 0 41 41" fill="none" xmlns="http://www.w3.org/2000/svg">
<circle cx="20.5" cy="19.5005" r="17.5" fill="#FFDE2E"/>
<path d="M29.6668 17.0672C29.6668 18.3459 28.6215 19.4006 27.3335 19.4006C26.0455 19.4006 25.0001 18.3459 25.0001 17.0672C25.0001 18.3459 23.9548 19.4006 22.6668 19.4006C21.3788 19.4006 20.3334 18.3459 20.3334 17.0672C20.3334 18.3459 19.2881 19.4006 18.0001 19.4006C16.7121 19.4006 15.6667 18.3459 15.6667 17.0672C15.6667 18.3459 14.6214 19.4006 13.3334 19.4006C12.0453 19.4006 11 18.3459 11 17.0672L12.2973 12.0085C12.2973 12.0085 12.568 11.0005 13.52 11.0005H27.1468C28.0988 11.0005 28.3695 12.0085 28.3695 12.0085L29.6668 17.0672ZM28.7335 20.5206V27.8006C28.7335 28.8273 27.8935 29.6673 26.8668 29.6673H13.8C12.7733 29.6673 11.9333 28.8273 11.9333 27.8006V20.5206C12.5469 20.7739 13.2174 20.8573 13.8743 20.7621C14.5312 20.6668 15.1504 20.3964 15.6667 19.9792C16.3107 20.4926 17.1227 20.8006 18.0001 20.8006C18.8867 20.8006 19.6987 20.4926 20.3334 19.9792C20.9774 20.4926 21.7894 20.8006 22.6668 20.8006C23.5534 20.8006 24.3655 20.4926 25.0001 19.9792C25.6348 20.4926 26.4561 20.8006 27.3335 20.8006C27.8281 20.8006 28.3042 20.6979 28.7335 20.5206ZM26.8668 25.3086C26.8668 25.1219 26.8668 24.9259 26.8201 24.7206L26.7921 24.5713H24.0201V25.6633H25.7095C25.6535 25.8686 25.5788 26.074 25.4201 26.242C25.1121 26.55 24.6921 26.718 24.2441 26.718C23.7774 26.718 23.3201 26.522 22.9841 26.1953C22.3401 25.5326 22.3401 24.4593 23.0028 23.7873C23.6468 23.1339 24.7108 23.1339 25.3828 23.7593L25.5135 23.8806L26.2975 23.0873L26.1481 22.9566C25.6255 22.4713 24.9348 22.2006 24.2068 22.2006H24.1974C23.4414 22.2006 22.7321 22.4899 22.2001 23.0126C21.6494 23.5539 21.3414 24.2633 21.3414 25.0006C21.3414 25.7473 21.6308 26.438 22.1628 26.9513C22.7171 27.4924 23.4601 27.797 24.2348 27.8006H24.2535C25.0001 27.8006 25.6628 27.53 26.1481 27.054C26.5868 26.606 26.8668 25.934 26.8668 25.3086Z" fill="black"/>
</svg>
