<svg width="41" height="41" viewBox="0 0 41 41" fill="none" xmlns="http://www.w3.org/2000/svg">
<circle cx="20.5" cy="19.5005" r="17.5" fill="#FFDE2E"/>
<path fill-rule="evenodd" clip-rule="evenodd" d="M24.71 9.61914H15.71C12.6034 9.61914 10.085 12.1375 10.085 15.2441V24.2441C10.085 27.3507 12.6034 29.8691 15.71 29.8691H24.71C27.8165 29.8691 30.335 27.3507 30.335 24.2441V15.2441C30.335 12.1375 27.8165 9.61914 24.71 9.61914ZM28.3662 24.2441C28.36 26.2608 26.7266 27.8942 24.71 27.9004H15.71C13.6932 27.8942 12.0599 26.2608 12.0537 24.2441V15.2441C12.0599 13.2274 13.6932 11.5941 15.71 11.5879H24.71C26.7266 11.5941 28.36 13.2274 28.3662 15.2441V24.2441ZM25.5537 15.5254C26.175 15.5254 26.6787 15.0217 26.6787 14.4004C26.6787 13.7791 26.175 13.2754 25.5537 13.2754C24.9324 13.2754 24.4287 13.7791 24.4287 14.4004C24.4287 15.0217 24.9324 15.5254 25.5537 15.5254ZM20.21 14.6816C17.414 14.6816 15.1475 16.9482 15.1475 19.7441C15.1475 22.5401 17.414 24.8066 20.21 24.8066C23.0059 24.8066 25.2725 22.5401 25.2725 19.7441C25.2755 18.4006 24.743 17.1112 23.793 16.1611C22.8429 15.2111 21.5535 14.6786 20.21 14.6816ZM17.1162 19.7441C17.1162 21.4528 18.5013 22.8379 20.21 22.8379C21.9186 22.8379 23.3037 21.4528 23.3037 19.7441C23.3037 18.0355 21.9186 16.6504 20.21 16.6504C18.5013 16.6504 17.1162 18.0355 17.1162 19.7441Z" fill="black"/>
</svg>
