<svg width="34" height="29" viewBox="0 0 34 29" fill="none" xmlns="http://www.w3.org/2000/svg">
<g clip-path="url(#clip0_2043_1300)">
<path d="M31.6722 15.9058H29.6101C30.7843 15.1826 30.9802 13.3707 29.9685 12.4178L27.0822 9.53141L28.356 8.25753C28.9951 8.56787 29.7642 8.4477 30.2817 7.93164L33.0811 5.13221C33.7421 4.47053 33.7421 3.39459 33.0811 2.73291L31.4821 1.13384C30.8409 0.492659 29.7232 0.492659 29.0828 1.13384L26.2833 3.93327C25.7779 4.42387 25.6407 5.2326 25.956 5.85964L24.6829 7.13281L21.7965 4.24644C20.6901 3.06799 18.5411 3.56284 18.0632 5.10535L15.3175 12.9925C14.7449 12.6461 14.0811 12.4729 13.377 12.5196C12.4071 9.64311 8.28076 9.48758 7.08394 12.2693C4.71008 11.0725 1.78977 13.2965 2.31572 15.9065C1.05103 15.8775 0.000540699 16.9018 0.00195455 18.1679V20.4301C0.00195455 21.1087 0.30876 21.7117 0.783815 22.1267C0.30876 22.5417 0.00195455 23.1447 0.00195455 23.8233V26.0855C0.00195455 27.3332 1.0171 28.3477 2.26412 28.3477H15.2716C15.9502 28.3477 16.5532 28.0409 16.9682 27.5658C17.3831 28.0409 17.9862 28.3477 18.6648 28.3477H31.6722C32.9193 28.3477 33.9344 27.3325 33.9344 26.0855V23.8233C33.9344 23.1447 33.6276 22.5417 33.1525 22.1267C33.6276 21.7117 33.9344 21.1087 33.9344 20.4301V18.1679C33.9344 16.9209 32.9193 15.9058 31.6722 15.9058ZM27.0822 4.7328L29.8816 1.93337C30.0916 1.71423 30.4705 1.71423 30.6811 1.93337L32.2802 3.53244C32.5008 3.753 32.5008 4.11212 32.2802 4.33268L29.4808 7.13211C29.2602 7.35196 28.9011 7.35267 28.6805 7.13211L27.0815 5.53233C26.8623 5.32238 26.8616 4.94346 27.0815 4.73351L27.0822 4.7328ZM26.6828 6.73128C26.8821 6.93063 27.2836 7.33217 27.4823 7.53152L23.4832 11.5306C23.2626 11.7512 22.9035 11.7512 22.6837 11.5306C22.4631 11.31 22.4631 10.9509 22.6837 10.7304L26.6828 6.73128ZM16.1163 14.1377C16.1163 14.1377 19.1321 5.47507 19.1321 5.47437C19.3675 4.70099 20.4463 4.45993 20.9969 5.04526L23.8833 7.93164L21.8841 9.93083C21.2225 10.5925 21.2225 11.6692 21.8841 12.3301C22.5458 12.9918 23.6218 12.9918 24.2834 12.3301L26.2826 10.3309L29.169 13.2173C29.7543 13.7694 29.514 14.8468 28.7385 15.0829C26.5541 15.8436 18.5368 18.6338 16.2132 19.4432C15.3578 19.7762 14.4367 18.8593 14.7718 18.0025L16.117 14.137L16.1163 14.1377ZM5.65736 13.0781C6.16211 13.0781 6.64423 13.2506 7.05142 13.5764C7.36742 13.8451 7.89761 13.6471 7.96123 13.2378C8.4278 10.7813 11.9568 10.7876 12.4014 13.2491C12.4488 13.5595 12.7803 13.7815 13.085 13.703C13.7361 13.5475 14.4091 13.7086 14.9315 14.1024L14.3038 15.9058H10.1824C9.50375 15.9058 8.90074 16.2126 8.48577 16.6876C8.07081 16.2126 7.4678 15.9058 6.78915 15.9058H3.47791C3.07072 14.5096 4.20958 13.0561 5.65807 13.0781H5.65736ZM1.13304 18.1679C1.13304 17.5444 1.64061 17.0368 2.26412 17.0368H6.78844C7.41195 17.0368 7.91953 17.5444 7.91953 18.1679V20.4301C7.91953 21.0536 7.41195 21.5612 6.78844 21.5612H2.26412C1.64061 21.5612 1.13304 21.0536 1.13304 20.4301V18.1679ZM16.4026 26.0855C16.4026 26.709 15.8951 27.2166 15.2716 27.2166H2.26412C1.64061 27.2166 1.13304 26.709 1.13304 26.0855V23.8233C1.13304 23.1998 1.64061 22.6923 2.26412 22.6923H15.2716C15.8951 22.6923 16.4026 23.1998 16.4026 23.8233V26.0855ZM10.1817 21.5612C9.55818 21.5612 9.05061 21.0536 9.05061 20.4301V18.1679C9.05061 17.5444 9.55818 17.0368 10.1817 17.0368H13.9093L13.7022 17.6328C13.1593 19.0431 14.3427 20.681 15.8343 20.6386C15.924 20.8719 23.959 17.8958 24.2665 17.8378C24.3669 17.9806 24.3047 20.2166 24.3202 20.4308C24.3202 21.0543 23.8126 21.5619 23.1891 21.5619H10.1817V21.5612ZM32.8033 26.0855C32.8033 26.709 32.2957 27.2166 31.6722 27.2166H18.6648C18.0413 27.2166 17.5337 26.709 17.5337 26.0855V23.8233C17.5337 23.1998 18.0413 22.6923 18.6648 22.6923H31.6722C32.2957 22.6923 32.8033 23.1998 32.8033 23.8233V26.0855ZM32.8033 20.4301C32.8033 21.0536 32.2957 21.5612 31.6722 21.5612H26.5824C25.9589 21.5612 25.4513 21.0536 25.4513 20.4301V18.1679C25.4513 17.8109 25.6231 17.4801 25.9073 17.2659L26.5633 17.0376C26.5817 17.0368 31.6715 17.0368 31.6715 17.0368C32.295 17.0368 32.8026 17.5444 32.8026 18.1679V20.4301H32.8033Z" fill="white"/>
</g>
<defs>
<clipPath id="clip0_2043_1300">
<rect width="33.9324" height="27.6952" fill="white" transform="translate(0.00195312 0.652344)"/>
</clipPath>
</defs>
</svg>
