<svg width="35" height="25" viewBox="0 0 35 25" fill="none" xmlns="http://www.w3.org/2000/svg">
<g clip-path="url(#clip0_2043_1296)">
<path d="M3.64207 0.0611431C3.40313 0.0505392 3.2059 0.157992 3.10056 0.340379C2.3286 1.65455 1.58562 2.97721 0.835573 4.30411C0.764173 4.42994 0.744379 4.57911 0.779019 4.71979L2.43605 11.3472L0.791037 16.2794C0.77195 16.3374 0.762053 16.3975 0.762053 16.4583C0.760639 17.969 0.764173 19.4726 0.764173 20.9812C0.76276 21.2937 1.01513 21.5474 1.32759 21.5489H4.19913C4.47695 23.4611 6.12903 24.9386 8.1162 24.9386C10.1034 24.9386 11.7505 23.4604 12.0276 21.5489H21.6885C22.4428 21.5489 22.4428 20.4178 21.6885 20.4178H12.029C11.7533 18.5041 10.1048 17.0238 8.11691 17.0238C7.04309 17.0238 6.06612 17.4572 5.35071 18.1563H1.89313V16.5502L3.56077 11.5473C3.5947 11.4455 3.59895 11.3359 3.57279 11.2313L1.9306 4.66323L2.32153 3.97186L5.20013 11.4773L5.28638 16.4675C5.29203 16.7757 5.5437 17.0231 5.85192 17.0231H16.6735C16.8764 17.0231 17.0645 16.9143 17.1649 16.7382L19.1202 13.3174L19.9904 13.9247V18.1549H13.175C12.3924 18.1945 12.4511 19.3256 13.2047 19.286H23.7711C23.5251 19.8006 23.3823 20.3732 23.3823 20.9805C23.3823 23.1599 25.1602 24.9379 27.3396 24.9379C29.3261 24.9379 30.9775 23.4597 31.2553 21.5482H34.1283C34.4421 21.5496 34.6973 21.2944 34.6959 20.9805V18.7183C34.6945 18.4059 34.4407 18.1535 34.1283 18.1549H33.5648V11.934C33.5648 11.8788 33.5556 11.8244 33.5394 11.7714L31.8548 6.15131C31.5685 5.19625 31.0595 4.58193 30.1702 4.58193H23.9492C23.0189 4.58193 22.2505 5.34754 22.2505 6.27714V16.4548C22.2505 17.209 23.3816 17.209 23.3816 16.4548V6.27856C23.3816 5.95549 23.6262 5.71514 23.9492 5.71514H30.1702C30.5463 5.71514 30.6594 6.10889 30.759 6.44115L32.4323 12.0195V18.1563H30.1051C29.3897 17.4579 28.4135 17.0238 27.3389 17.0238C26.2644 17.0238 25.291 17.4572 24.5763 18.1563H21.1201V13.6306C21.1201 13.4454 21.0296 13.2722 20.8783 13.1668L19.2581 12.0358C18.9852 11.8456 18.6091 11.9311 18.4437 12.2189L17.1337 14.5107L11.812 13.5705L16.658 5.17363L20.1198 9.31693L19.5755 10.2578C19.1973 10.911 20.1785 11.478 20.5553 10.8234L21.2961 9.53961C21.4149 9.33389 21.393 9.07657 21.241 8.89489L17.0072 3.82906C16.9648 3.77745 16.9139 3.73433 16.8566 3.7011L12.9374 1.43894C12.8752 1.40289 12.8067 1.37956 12.7353 1.36896L3.64207 0.0611431ZM3.88808 1.23747L11.7491 2.37067L7.72881 9.33389C7.35202 9.98709 8.33182 10.5526 8.70861 9.89943L12.8639 2.70293L15.804 4.39955L10.712 13.2142L8.36363 11.859C8.06248 11.6851 7.74224 11.8131 7.60227 12.0513C7.45664 12.3002 7.47643 12.6522 7.78465 12.8303L10.6364 14.4775C10.6929 14.5107 10.7552 14.5333 10.8195 14.5446L16.5378 15.5555L16.3448 15.8935H6.40756L6.33051 11.3592C6.32909 11.2935 6.31637 11.2285 6.29304 11.1669L3.04472 2.69868L3.88879 1.23747H3.88808ZM25.0831 6.84198C24.7707 6.84056 24.5155 7.09223 24.5141 7.4054V10.8043C24.5155 11.1168 24.77 11.3691 25.0831 11.3677H26.5436L27.5079 12.3362C27.6146 12.4415 27.7588 12.4995 27.9087 12.4988H30.6346C31.0107 12.4967 31.28 12.134 31.174 11.7728L29.8209 7.24705C29.7503 7.00669 29.529 6.84198 29.2787 6.84198H25.0838H25.0831ZM25.6458 7.97306H28.856L29.8747 11.3677H28.1427L27.1785 10.4035C27.0724 10.2967 26.9282 10.2366 26.7776 10.2366H25.6466V7.97306H25.6458ZM25.0831 13.6299C24.3281 13.6299 24.3281 14.7624 25.0831 14.7624H26.2142C26.9692 14.7624 26.9692 13.6299 26.2142 13.6299H25.0831ZM8.11691 18.1563C9.68558 18.1563 10.9425 19.4132 10.9425 20.9819C10.9425 22.5506 9.68558 23.8131 8.11691 23.8131C6.54824 23.8131 5.28567 22.5506 5.28567 20.9819C5.28567 19.4132 6.54824 18.1563 8.11691 18.1563ZM27.3403 18.1563C28.909 18.1563 30.1716 19.4132 30.1716 20.9819C30.1716 22.5506 28.909 23.8131 27.3403 23.8131C25.7717 23.8131 24.5141 22.5506 24.5141 20.9819C24.5141 19.4132 25.7724 18.1563 27.3403 18.1563ZM1.89101 19.2874H4.5434C4.37515 19.6395 4.25639 20.0191 4.19842 20.4185H1.89101V19.2874ZM8.11691 19.2874C7.1866 19.2874 6.41675 20.0516 6.41675 20.9819C6.41675 21.9122 7.1866 22.6821 8.11691 22.6821C9.04722 22.6821 9.81141 21.9122 9.81141 20.9819C9.81141 20.0516 9.04722 19.2874 8.11691 19.2874ZM27.3403 19.2874C26.41 19.2874 25.6458 20.0516 25.6458 20.9819C25.6458 21.9122 26.41 22.6821 27.3403 22.6821C28.2707 22.6821 29.0405 21.9122 29.0405 20.9819C29.0405 20.0516 28.2707 19.2874 27.3403 19.2874ZM30.9139 19.2874H33.5662V20.4185H31.2574C31.1995 20.0191 31.0821 19.6395 30.9139 19.2874ZM8.11691 20.4185C8.43573 20.4185 8.68033 20.6631 8.68033 20.9819C8.68033 21.3007 8.43573 21.5496 8.11691 21.5496C7.79809 21.5496 7.54783 21.3007 7.54783 20.9819C7.54783 20.6631 7.79738 20.4185 8.11691 20.4185ZM27.3403 20.4185C27.6592 20.4185 27.908 20.6631 27.908 20.9819C27.908 21.3007 27.6592 21.5496 27.3403 21.5496C27.0215 21.5496 26.7769 21.3007 26.7769 20.9819C26.7769 20.6631 27.0215 20.4185 27.3403 20.4185Z" fill="white"/>
</g>
<defs>
<clipPath id="clip0_2043_1296">
<rect width="33.9353" height="24.8788" fill="white" transform="translate(0.761719 0.0605469)"/>
</clipPath>
</defs>
</svg>
