<svg width="35" height="25" viewBox="0 0 35 25" fill="none" xmlns="http://www.w3.org/2000/svg">
<g clip-path="url(#clip0_2043_1303)">
<path d="M3.11961 0.0611431C2.88067 0.0505392 2.68343 0.157992 2.5781 0.340379C1.80614 1.65455 1.06316 2.97721 0.313112 4.30411C0.241712 4.42994 0.221918 4.57911 0.256558 4.71979L1.91359 11.3472L0.268576 16.2794C0.249489 16.3374 0.239592 16.3975 0.239592 16.4583C0.238178 17.969 0.241712 19.4726 0.241712 20.9812C0.240299 21.2937 0.492671 21.5474 0.805132 21.5489H3.67667C3.95449 23.4611 5.60657 24.9386 7.59374 24.9386C9.58091 24.9386 11.228 23.4604 11.5052 21.5489H21.166C21.9203 21.5489 21.9203 20.4178 21.166 20.4178H11.5066C11.2309 18.5041 9.58232 17.0238 7.59445 17.0238C6.52063 17.0238 5.54366 17.4572 4.82825 18.1563H1.37067V16.5502L3.03831 11.5473C3.07224 11.4455 3.07649 11.3359 3.05033 11.2313L1.40814 4.66323L1.79907 3.97186L4.67767 11.4773L4.76392 16.4675C4.76957 16.7757 5.02124 17.0231 5.32946 17.0231H16.1511C16.354 17.0231 16.542 16.9143 16.6424 16.7382L18.5978 13.3174L19.468 13.9247V18.1549H12.6525C11.8699 18.1945 11.9286 19.3256 12.6822 19.286H23.2486C23.0026 19.8006 22.8598 20.3732 22.8598 20.9805C22.8598 23.1599 24.6377 24.9379 26.8172 24.9379C28.8036 24.9379 30.455 23.4597 30.7328 21.5482H33.6058C33.9197 21.5496 34.1749 21.2944 34.1735 20.9805V18.7183C34.172 18.4059 33.9182 18.1535 33.6058 18.1549H33.0424V11.934C33.0424 11.8788 33.0332 11.8244 33.0169 11.7714L31.3323 6.15131C31.046 5.19625 30.537 4.58193 29.6477 4.58193H23.4268C22.4964 4.58193 21.728 5.34754 21.728 6.27714V16.4548C21.728 17.209 22.8591 17.209 22.8591 16.4548V6.27856C22.8591 5.95549 23.1037 5.71514 23.4268 5.71514H29.6477C30.0238 5.71514 30.1369 6.10889 30.2366 6.44115L31.9099 12.0195V18.1563H29.5827C28.8673 17.4579 27.891 17.0238 26.8165 17.0238C25.7419 17.0238 24.7685 17.4572 24.0538 18.1563H20.5976V13.6306C20.5976 13.4454 20.5072 13.2722 20.3559 13.1668L18.7356 12.0358C18.4627 11.8456 18.0866 11.9311 17.9212 12.2189L16.6113 14.5107L11.2895 13.5705L16.1355 5.17363L19.5973 9.31693L19.053 10.2578C18.6748 10.911 19.656 11.478 20.0328 10.8234L20.7737 9.53961C20.8924 9.33389 20.8705 9.07657 20.7185 8.89489L16.4847 3.82906C16.4423 3.77745 16.3914 3.73433 16.3342 3.7011L12.415 1.43894C12.3528 1.40289 12.2842 1.37956 12.2128 1.36896L3.11961 0.0611431ZM3.36562 1.23747L11.2266 2.37067L7.20635 9.33389C6.82956 9.98709 7.80935 10.5526 8.18615 9.89943L12.3415 2.70293L15.2816 4.39955L10.1896 13.2142L7.84117 11.859C7.54002 11.6851 7.21978 11.8131 7.07981 12.0513C6.93418 12.3002 6.95397 12.6522 7.26219 12.8303L10.1139 14.4775C10.1705 14.5107 10.2327 14.5333 10.297 14.5446L16.0154 15.5555L15.8224 15.8935H5.8851L5.80805 11.3592C5.80663 11.2935 5.79391 11.2285 5.77058 11.1669L2.52226 2.69868L3.36632 1.23747H3.36562ZM24.5607 6.84198C24.2482 6.84056 23.993 7.09223 23.9916 7.4054V10.8043C23.993 11.1168 24.2475 11.3691 24.5607 11.3677H26.0212L26.9854 12.3362C27.0922 12.4415 27.2364 12.4995 27.3863 12.4988H30.1122C30.4882 12.4967 30.7576 12.134 30.6515 11.7728L29.2985 7.24705C29.2278 7.00669 29.0065 6.84198 28.7563 6.84198H24.5614H24.5607ZM25.1234 7.97306H28.3335L29.3522 11.3677H27.6202L26.656 10.4035C26.55 10.2967 26.4057 10.2366 26.2552 10.2366H25.1241V7.97306H25.1234ZM24.5607 13.6299C23.8057 13.6299 23.8057 14.7624 24.5607 14.7624H25.6918C26.4468 14.7624 26.4468 13.6299 25.6918 13.6299H24.5607ZM7.59445 18.1563C9.16312 18.1563 10.42 19.4132 10.42 20.9819C10.42 22.5506 9.16312 23.8131 7.59445 23.8131C6.02578 23.8131 4.76321 22.5506 4.76321 20.9819C4.76321 19.4132 6.02578 18.1563 7.59445 18.1563ZM26.8179 18.1563C28.3866 18.1563 29.6491 19.4132 29.6491 20.9819C29.6491 22.5506 28.3866 23.8131 26.8179 23.8131C25.2492 23.8131 23.9916 22.5506 23.9916 20.9819C23.9916 19.4132 25.2499 18.1563 26.8179 18.1563ZM1.36855 19.2874H4.02094C3.85269 19.6395 3.73393 20.0191 3.67596 20.4185H1.36855V19.2874ZM7.59445 19.2874C6.66413 19.2874 5.89429 20.0516 5.89429 20.9819C5.89429 21.9122 6.66413 22.6821 7.59445 22.6821C8.52476 22.6821 9.28895 21.9122 9.28895 20.9819C9.28895 20.0516 8.52476 19.2874 7.59445 19.2874ZM26.8179 19.2874C25.8876 19.2874 25.1234 20.0516 25.1234 20.9819C25.1234 21.9122 25.8876 22.6821 26.8179 22.6821C27.7482 22.6821 28.518 21.9122 28.518 20.9819C28.518 20.0516 27.7482 19.2874 26.8179 19.2874ZM30.3914 19.2874H33.0438V20.4185H30.735C30.677 20.0191 30.5596 19.6395 30.3914 19.2874ZM7.59445 20.4185C7.91327 20.4185 8.15787 20.6631 8.15787 20.9819C8.15787 21.3007 7.91327 21.5496 7.59445 21.5496C7.27563 21.5496 7.02537 21.3007 7.02537 20.9819C7.02537 20.6631 7.27492 20.4185 7.59445 20.4185ZM26.8179 20.4185C27.1367 20.4185 27.3855 20.6631 27.3855 20.9819C27.3855 21.3007 27.1367 21.5496 26.8179 21.5496C26.4991 21.5496 26.2545 21.3007 26.2545 20.9819C26.2545 20.6631 26.4991 20.4185 26.8179 20.4185Z" fill="white"/>
</g>
<defs>
<clipPath id="clip0_2043_1303">
<rect width="33.9353" height="24.8788" fill="white" transform="translate(0.239258 0.0605469)"/>
</clipPath>
</defs>
</svg>
